# xmcd CD database file
#
# Track frame offsets:
#	150
#	10106
#	30712
#	42152
#	54847
#	67223
#	83335
#	95464
#	104728
#	117697
#	129870
#	142175
#
# Disc length: 2126 seconds
#
# Revision: 0
# Processed by: cddbd v1.5.2PL0 Copyright (c) Steve Scherf et al.
# Submitted via: CDex 1.70beta2
#
DISCID=a1084c0c
DTITLE=Lapis Luna - Snowbound
DYEAR=2010
DGENRE=Jazz
TTITLE0=Warm December
TTITLE1=By the Fireside
TTITLE2=Let Heaven and Nature Sing
TTITLE3=Christmas Island
TTITLE4=Have Yourself a Merry LIttle Christmas
TTITLE5=Baby it's Cold Outside
TTITLE6=Love for Christmas
TTITLE7=White Christmas
TTITLE8=Winter Weather
TTITLE9=Snowbound
TTITLE10=I Saw Mommy Kissing Santa Claus
TTITLE11=Auld Lange Syne
EXTD=YEAR: 2010
EXTT0=
EXTT1=
EXTT2=
EXTT3=
EXTT4=
EXTT5=
EXTT6=
EXTT7=
EXTT8=
EXTT9=
EXTT10=
EXTT11=
PLAYORDER=
